<mxfile host="app.diagrams.net" modified="2021-03-04T00:10:52.353Z" agent="5.0 (Windows NT 10.0; Win64; x64) AppleWebKit/537.36 (KHTML, like Gecko) Chrome/89.0.4389.72 Safari/537.36" etag="expooghaKXZnimFUEOEE" version="14.4.4" type="github">
  <diagram id="R2lEEEUBdFMjLlhIrx00" name="Page-1">
    <mxGraphModel dx="2721" dy="1600" grid="1" gridSize="10" guides="1" tooltips="1" connect="1" arrows="1" fold="1" page="1" pageScale="1" pageWidth="850" pageHeight="1100" math="0" shadow="0" extFonts="Permanent Marker^https://fonts.googleapis.com/css?family=Permanent+Marker">
      <root>
        <mxCell id="0" />
        <mxCell id="1" parent="0" />
        <mxCell id="C-vyLk0tnHw3VtMMgP7b-1" value="" style="edgeStyle=entityRelationEdgeStyle;endArrow=ERzeroToMany;startArrow=ERone;endFill=1;startFill=0;" parent="1" source="C-vyLk0tnHw3VtMMgP7b-24" target="C-vyLk0tnHw3VtMMgP7b-6" edge="1">
          <mxGeometry width="100" height="100" relative="1" as="geometry">
            <mxPoint x="-1180" y="1070" as="sourcePoint" />
            <mxPoint x="-1080" y="970" as="targetPoint" />
          </mxGeometry>
        </mxCell>
        <mxCell id="C-vyLk0tnHw3VtMMgP7b-12" value="" style="edgeStyle=entityRelationEdgeStyle;endArrow=ERzeroToMany;startArrow=ERone;endFill=1;startFill=0;" parent="1" source="C-vyLk0tnHw3VtMMgP7b-3" target="C-vyLk0tnHw3VtMMgP7b-17" edge="1">
          <mxGeometry width="100" height="100" relative="1" as="geometry">
            <mxPoint x="-660" y="230" as="sourcePoint" />
            <mxPoint x="-600" y="255" as="targetPoint" />
          </mxGeometry>
        </mxCell>
        <mxCell id="C-vyLk0tnHw3VtMMgP7b-2" value="Orders" style="shape=table;startSize=30;container=1;collapsible=1;childLayout=tableLayout;fixedRows=1;rowLines=0;fontStyle=1;align=center;resizeLast=1;" parent="1" vertex="1">
          <mxGeometry x="-1070" y="470" width="250" height="130" as="geometry" />
        </mxCell>
        <mxCell id="C-vyLk0tnHw3VtMMgP7b-3" value="" style="shape=partialRectangle;collapsible=0;dropTarget=0;pointerEvents=0;fillColor=none;points=[[0,0.5],[1,0.5]];portConstraint=eastwest;top=0;left=0;right=0;bottom=1;" parent="C-vyLk0tnHw3VtMMgP7b-2" vertex="1">
          <mxGeometry y="30" width="250" height="30" as="geometry" />
        </mxCell>
        <mxCell id="C-vyLk0tnHw3VtMMgP7b-4" value="PK" style="shape=partialRectangle;overflow=hidden;connectable=0;fillColor=none;top=0;left=0;bottom=0;right=0;fontStyle=1;" parent="C-vyLk0tnHw3VtMMgP7b-3" vertex="1">
          <mxGeometry width="30" height="30" as="geometry" />
        </mxCell>
        <mxCell id="C-vyLk0tnHw3VtMMgP7b-5" value="order_id int NOT NULL " style="shape=partialRectangle;overflow=hidden;connectable=0;fillColor=none;top=0;left=0;bottom=0;right=0;align=left;spacingLeft=6;fontStyle=5;" parent="C-vyLk0tnHw3VtMMgP7b-3" vertex="1">
          <mxGeometry x="30" width="220" height="30" as="geometry" />
        </mxCell>
        <mxCell id="C-vyLk0tnHw3VtMMgP7b-6" value="" style="shape=partialRectangle;collapsible=0;dropTarget=0;pointerEvents=0;fillColor=none;points=[[0,0.5],[1,0.5]];portConstraint=eastwest;top=0;left=0;right=0;bottom=0;" parent="C-vyLk0tnHw3VtMMgP7b-2" vertex="1">
          <mxGeometry y="60" width="250" height="30" as="geometry" />
        </mxCell>
        <mxCell id="C-vyLk0tnHw3VtMMgP7b-7" value="FK1" style="shape=partialRectangle;overflow=hidden;connectable=0;fillColor=none;top=0;left=0;bottom=0;right=0;" parent="C-vyLk0tnHw3VtMMgP7b-6" vertex="1">
          <mxGeometry width="30" height="30" as="geometry" />
        </mxCell>
        <mxCell id="C-vyLk0tnHw3VtMMgP7b-8" value="customer_id int NOT NULL" style="shape=partialRectangle;overflow=hidden;connectable=0;fillColor=none;top=0;left=0;bottom=0;right=0;align=left;spacingLeft=6;" parent="C-vyLk0tnHw3VtMMgP7b-6" vertex="1">
          <mxGeometry x="30" width="220" height="30" as="geometry" />
        </mxCell>
        <mxCell id="C-vyLk0tnHw3VtMMgP7b-9" value="" style="shape=partialRectangle;collapsible=0;dropTarget=0;pointerEvents=0;fillColor=none;points=[[0,0.5],[1,0.5]];portConstraint=eastwest;top=0;left=0;right=0;bottom=0;" parent="C-vyLk0tnHw3VtMMgP7b-2" vertex="1">
          <mxGeometry y="90" width="250" height="30" as="geometry" />
        </mxCell>
        <mxCell id="C-vyLk0tnHw3VtMMgP7b-10" value="" style="shape=partialRectangle;overflow=hidden;connectable=0;fillColor=none;top=0;left=0;bottom=0;right=0;" parent="C-vyLk0tnHw3VtMMgP7b-9" vertex="1">
          <mxGeometry width="30" height="30" as="geometry" />
        </mxCell>
        <mxCell id="C-vyLk0tnHw3VtMMgP7b-11" value="order_date date NOT NULL" style="shape=partialRectangle;overflow=hidden;connectable=0;fillColor=none;top=0;left=0;bottom=0;right=0;align=left;spacingLeft=6;" parent="C-vyLk0tnHw3VtMMgP7b-9" vertex="1">
          <mxGeometry x="30" width="220" height="30" as="geometry" />
        </mxCell>
        <mxCell id="C-vyLk0tnHw3VtMMgP7b-13" value="Shipments" style="shape=table;startSize=30;container=1;collapsible=1;childLayout=tableLayout;fixedRows=1;rowLines=0;fontStyle=1;align=center;resizeLast=1;" parent="1" vertex="1">
          <mxGeometry x="-1070" y="630" width="250" height="130" as="geometry" />
        </mxCell>
        <mxCell id="C-vyLk0tnHw3VtMMgP7b-14" value="" style="shape=partialRectangle;collapsible=0;dropTarget=0;pointerEvents=0;fillColor=none;points=[[0,0.5],[1,0.5]];portConstraint=eastwest;top=0;left=0;right=0;bottom=1;" parent="C-vyLk0tnHw3VtMMgP7b-13" vertex="1">
          <mxGeometry y="30" width="250" height="30" as="geometry" />
        </mxCell>
        <mxCell id="C-vyLk0tnHw3VtMMgP7b-15" value="PK" style="shape=partialRectangle;overflow=hidden;connectable=0;fillColor=none;top=0;left=0;bottom=0;right=0;fontStyle=1;" parent="C-vyLk0tnHw3VtMMgP7b-14" vertex="1">
          <mxGeometry width="30" height="30" as="geometry" />
        </mxCell>
        <mxCell id="C-vyLk0tnHw3VtMMgP7b-16" value="shipment_id int NOT NULL " style="shape=partialRectangle;overflow=hidden;connectable=0;fillColor=none;top=0;left=0;bottom=0;right=0;align=left;spacingLeft=6;fontStyle=5;" parent="C-vyLk0tnHw3VtMMgP7b-14" vertex="1">
          <mxGeometry x="30" width="220" height="30" as="geometry" />
        </mxCell>
        <mxCell id="C-vyLk0tnHw3VtMMgP7b-17" value="" style="shape=partialRectangle;collapsible=0;dropTarget=0;pointerEvents=0;fillColor=none;points=[[0,0.5],[1,0.5]];portConstraint=eastwest;top=0;left=0;right=0;bottom=0;" parent="C-vyLk0tnHw3VtMMgP7b-13" vertex="1">
          <mxGeometry y="60" width="250" height="30" as="geometry" />
        </mxCell>
        <mxCell id="C-vyLk0tnHw3VtMMgP7b-18" value="FK1" style="shape=partialRectangle;overflow=hidden;connectable=0;fillColor=none;top=0;left=0;bottom=0;right=0;" parent="C-vyLk0tnHw3VtMMgP7b-17" vertex="1">
          <mxGeometry width="30" height="30" as="geometry" />
        </mxCell>
        <mxCell id="C-vyLk0tnHw3VtMMgP7b-19" value="order_id int NOT NULL" style="shape=partialRectangle;overflow=hidden;connectable=0;fillColor=none;top=0;left=0;bottom=0;right=0;align=left;spacingLeft=6;" parent="C-vyLk0tnHw3VtMMgP7b-17" vertex="1">
          <mxGeometry x="30" width="220" height="30" as="geometry" />
        </mxCell>
        <mxCell id="C-vyLk0tnHw3VtMMgP7b-20" value="" style="shape=partialRectangle;collapsible=0;dropTarget=0;pointerEvents=0;fillColor=none;points=[[0,0.5],[1,0.5]];portConstraint=eastwest;top=0;left=0;right=0;bottom=0;" parent="C-vyLk0tnHw3VtMMgP7b-13" vertex="1">
          <mxGeometry y="90" width="250" height="30" as="geometry" />
        </mxCell>
        <mxCell id="C-vyLk0tnHw3VtMMgP7b-21" value="" style="shape=partialRectangle;overflow=hidden;connectable=0;fillColor=none;top=0;left=0;bottom=0;right=0;" parent="C-vyLk0tnHw3VtMMgP7b-20" vertex="1">
          <mxGeometry width="30" height="30" as="geometry" />
        </mxCell>
        <mxCell id="C-vyLk0tnHw3VtMMgP7b-22" value="shipment_date date NOT NULL" style="shape=partialRectangle;overflow=hidden;connectable=0;fillColor=none;top=0;left=0;bottom=0;right=0;align=left;spacingLeft=6;" parent="C-vyLk0tnHw3VtMMgP7b-20" vertex="1">
          <mxGeometry x="30" width="220" height="30" as="geometry" />
        </mxCell>
        <mxCell id="C-vyLk0tnHw3VtMMgP7b-23" value="Customers" style="shape=table;startSize=30;container=1;collapsible=1;childLayout=tableLayout;fixedRows=1;rowLines=0;fontStyle=1;align=center;resizeLast=1;" parent="1" vertex="1">
          <mxGeometry x="-830" y="160" width="250" height="100" as="geometry" />
        </mxCell>
        <mxCell id="C-vyLk0tnHw3VtMMgP7b-24" value="" style="shape=partialRectangle;collapsible=0;dropTarget=0;pointerEvents=0;fillColor=none;points=[[0,0.5],[1,0.5]];portConstraint=eastwest;top=0;left=0;right=0;bottom=1;" parent="C-vyLk0tnHw3VtMMgP7b-23" vertex="1">
          <mxGeometry y="30" width="250" height="30" as="geometry" />
        </mxCell>
        <mxCell id="C-vyLk0tnHw3VtMMgP7b-25" value="PK" style="shape=partialRectangle;overflow=hidden;connectable=0;fillColor=none;top=0;left=0;bottom=0;right=0;fontStyle=1;" parent="C-vyLk0tnHw3VtMMgP7b-24" vertex="1">
          <mxGeometry width="30" height="30" as="geometry" />
        </mxCell>
        <mxCell id="C-vyLk0tnHw3VtMMgP7b-26" value="id_miembro int NOT NULL " style="shape=partialRectangle;overflow=hidden;connectable=0;fillColor=none;top=0;left=0;bottom=0;right=0;align=left;spacingLeft=6;fontStyle=5;" parent="C-vyLk0tnHw3VtMMgP7b-24" vertex="1">
          <mxGeometry x="30" width="220" height="30" as="geometry" />
        </mxCell>
        <mxCell id="C-vyLk0tnHw3VtMMgP7b-27" value="" style="shape=partialRectangle;collapsible=0;dropTarget=0;pointerEvents=0;fillColor=none;points=[[0,0.5],[1,0.5]];portConstraint=eastwest;top=0;left=0;right=0;bottom=0;" parent="C-vyLk0tnHw3VtMMgP7b-23" vertex="1">
          <mxGeometry y="60" width="250" height="30" as="geometry" />
        </mxCell>
        <mxCell id="C-vyLk0tnHw3VtMMgP7b-28" value="" style="shape=partialRectangle;overflow=hidden;connectable=0;fillColor=none;top=0;left=0;bottom=0;right=0;" parent="C-vyLk0tnHw3VtMMgP7b-27" vertex="1">
          <mxGeometry width="30" height="30" as="geometry" />
        </mxCell>
        <mxCell id="C-vyLk0tnHw3VtMMgP7b-29" value="customer_name char(50) NOT NULL" style="shape=partialRectangle;overflow=hidden;connectable=0;fillColor=none;top=0;left=0;bottom=0;right=0;align=left;spacingLeft=6;" parent="C-vyLk0tnHw3VtMMgP7b-27" vertex="1">
          <mxGeometry x="30" width="220" height="30" as="geometry" />
        </mxCell>
        <mxCell id="h92drkJxd7inWmm_5_wo-7" style="edgeStyle=orthogonalEdgeStyle;rounded=0;orthogonalLoop=1;jettySize=auto;html=1;endArrow=none;endFill=0;" edge="1" parent="1" source="h92drkJxd7inWmm_5_wo-1" target="h92drkJxd7inWmm_5_wo-5">
          <mxGeometry relative="1" as="geometry">
            <Array as="points">
              <mxPoint x="540" y="-115" />
              <mxPoint x="615" y="-115" />
            </Array>
          </mxGeometry>
        </mxCell>
        <mxCell id="h92drkJxd7inWmm_5_wo-72" style="edgeStyle=orthogonalEdgeStyle;rounded=0;orthogonalLoop=1;jettySize=auto;html=1;entryX=1;entryY=0.5;entryDx=0;entryDy=0;endArrow=none;endFill=0;" edge="1" parent="1" source="h92drkJxd7inWmm_5_wo-73" target="h92drkJxd7inWmm_5_wo-70">
          <mxGeometry relative="1" as="geometry" />
        </mxCell>
        <mxCell id="h92drkJxd7inWmm_5_wo-1" value="&lt;font style=&quot;font-size: 18px&quot;&gt;Miembro&lt;/font&gt;" style="rounded=1;whiteSpace=wrap;html=1;" vertex="1" parent="1">
          <mxGeometry x="420" y="-220" width="150" height="80" as="geometry" />
        </mxCell>
        <mxCell id="h92drkJxd7inWmm_5_wo-9" style="edgeStyle=orthogonalEdgeStyle;rounded=0;orthogonalLoop=1;jettySize=auto;html=1;endArrow=none;endFill=0;" edge="1" parent="1" source="h92drkJxd7inWmm_5_wo-2" target="h92drkJxd7inWmm_5_wo-1">
          <mxGeometry relative="1" as="geometry">
            <Array as="points">
              <mxPoint x="395" y="-240" />
              <mxPoint x="460" y="-240" />
            </Array>
          </mxGeometry>
        </mxCell>
        <mxCell id="h92drkJxd7inWmm_5_wo-2" value="&lt;u&gt;&lt;i&gt;id_miembro&lt;/i&gt;&lt;/u&gt;" style="ellipse;whiteSpace=wrap;html=1;" vertex="1" parent="1">
          <mxGeometry x="350" y="-290" width="90" height="30" as="geometry" />
        </mxCell>
        <mxCell id="h92drkJxd7inWmm_5_wo-10" style="edgeStyle=orthogonalEdgeStyle;rounded=0;orthogonalLoop=1;jettySize=auto;html=1;endArrow=none;endFill=0;" edge="1" parent="1" source="h92drkJxd7inWmm_5_wo-4" target="h92drkJxd7inWmm_5_wo-1">
          <mxGeometry relative="1" as="geometry">
            <Array as="points">
              <mxPoint x="565" y="-245" />
              <mxPoint x="540" y="-245" />
            </Array>
          </mxGeometry>
        </mxCell>
        <mxCell id="h92drkJxd7inWmm_5_wo-4" value="&lt;i&gt;nombre_miembro&lt;/i&gt;" style="ellipse;whiteSpace=wrap;html=1;" vertex="1" parent="1">
          <mxGeometry x="510" y="-300" width="110" height="30" as="geometry" />
        </mxCell>
        <mxCell id="h92drkJxd7inWmm_5_wo-5" value="&lt;i&gt;fecha_pago&lt;/i&gt;" style="ellipse;whiteSpace=wrap;html=1;" vertex="1" parent="1">
          <mxGeometry x="570" y="-90" width="90" height="30" as="geometry" />
        </mxCell>
        <mxCell id="h92drkJxd7inWmm_5_wo-8" style="edgeStyle=orthogonalEdgeStyle;rounded=0;orthogonalLoop=1;jettySize=auto;html=1;endArrow=none;endFill=0;" edge="1" parent="1" source="h92drkJxd7inWmm_5_wo-6" target="h92drkJxd7inWmm_5_wo-1">
          <mxGeometry relative="1" as="geometry">
            <Array as="points">
              <mxPoint x="470" y="-105" />
            </Array>
          </mxGeometry>
        </mxCell>
        <mxCell id="h92drkJxd7inWmm_5_wo-6" value="&lt;i&gt;cod_postal&lt;/i&gt;" style="ellipse;whiteSpace=wrap;html=1;" vertex="1" parent="1">
          <mxGeometry x="320" y="-120" width="90" height="30" as="geometry" />
        </mxCell>
        <mxCell id="h92drkJxd7inWmm_5_wo-12" style="edgeStyle=orthogonalEdgeStyle;rounded=0;orthogonalLoop=1;jettySize=auto;html=1;endArrow=none;endFill=0;" edge="1" parent="1" source="h92drkJxd7inWmm_5_wo-11" target="C-vyLk0tnHw3VtMMgP7b-17">
          <mxGeometry relative="1" as="geometry" />
        </mxCell>
        <mxCell id="h92drkJxd7inWmm_5_wo-11" value="" style="shape=internalStorage;whiteSpace=wrap;html=1;backgroundOutline=1;" vertex="1" parent="1">
          <mxGeometry x="-1370" y="610" width="80" height="80" as="geometry" />
        </mxCell>
        <mxCell id="h92drkJxd7inWmm_5_wo-14" value="&lt;font style=&quot;font-size: 18px&quot;&gt;Membresía&lt;/font&gt;" style="rounded=1;whiteSpace=wrap;html=1;" vertex="1" parent="1">
          <mxGeometry x="1090" y="-220" width="150" height="80" as="geometry" />
        </mxCell>
        <mxCell id="h92drkJxd7inWmm_5_wo-21" style="edgeStyle=orthogonalEdgeStyle;rounded=0;orthogonalLoop=1;jettySize=auto;html=1;entryX=0.25;entryY=0;entryDx=0;entryDy=0;endArrow=none;endFill=0;" edge="1" parent="1" source="h92drkJxd7inWmm_5_wo-15" target="h92drkJxd7inWmm_5_wo-14">
          <mxGeometry relative="1" as="geometry" />
        </mxCell>
        <mxCell id="h92drkJxd7inWmm_5_wo-15" value="&lt;u&gt;&lt;i&gt;id_membresía&lt;/i&gt;&lt;/u&gt;" style="ellipse;whiteSpace=wrap;html=1;" vertex="1" parent="1">
          <mxGeometry x="1010" y="-295" width="90" height="30" as="geometry" />
        </mxCell>
        <mxCell id="h92drkJxd7inWmm_5_wo-20" style="edgeStyle=orthogonalEdgeStyle;rounded=0;orthogonalLoop=1;jettySize=auto;html=1;entryX=0.75;entryY=0;entryDx=0;entryDy=0;endArrow=none;endFill=0;" edge="1" parent="1" source="h92drkJxd7inWmm_5_wo-17" target="h92drkJxd7inWmm_5_wo-14">
          <mxGeometry relative="1" as="geometry" />
        </mxCell>
        <mxCell id="h92drkJxd7inWmm_5_wo-17" value="&lt;i&gt;nombre_membresía&lt;/i&gt;" style="ellipse;whiteSpace=wrap;html=1;" vertex="1" parent="1">
          <mxGeometry x="1200" y="-295" width="110" height="30" as="geometry" />
        </mxCell>
        <mxCell id="h92drkJxd7inWmm_5_wo-22" style="edgeStyle=orthogonalEdgeStyle;rounded=0;orthogonalLoop=1;jettySize=auto;html=1;endArrow=none;endFill=0;" edge="1" parent="1" source="h92drkJxd7inWmm_5_wo-18" target="h92drkJxd7inWmm_5_wo-14">
          <mxGeometry relative="1" as="geometry" />
        </mxCell>
        <mxCell id="h92drkJxd7inWmm_5_wo-18" value="&lt;i&gt;precio&lt;/i&gt;" style="ellipse;whiteSpace=wrap;html=1;" vertex="1" parent="1">
          <mxGeometry x="1110" y="-90" width="110" height="30" as="geometry" />
        </mxCell>
        <mxCell id="h92drkJxd7inWmm_5_wo-24" style="edgeStyle=orthogonalEdgeStyle;rounded=0;orthogonalLoop=1;jettySize=auto;html=1;entryX=0;entryY=0.5;entryDx=0;entryDy=0;endArrow=none;endFill=0;" edge="1" parent="1" source="h92drkJxd7inWmm_5_wo-67" target="h92drkJxd7inWmm_5_wo-14">
          <mxGeometry relative="1" as="geometry" />
        </mxCell>
        <mxCell id="h92drkJxd7inWmm_5_wo-25" style="edgeStyle=orthogonalEdgeStyle;rounded=0;orthogonalLoop=1;jettySize=auto;html=1;endArrow=none;endFill=0;" edge="1" parent="1" source="h92drkJxd7inWmm_5_wo-65" target="h92drkJxd7inWmm_5_wo-1">
          <mxGeometry relative="1" as="geometry">
            <Array as="points">
              <mxPoint x="570" y="-180" />
              <mxPoint x="570" y="-180" />
            </Array>
          </mxGeometry>
        </mxCell>
        <mxCell id="h92drkJxd7inWmm_5_wo-23" value="&lt;font style=&quot;font-size: 14px&quot;&gt;pagar&lt;/font&gt;" style="rhombus;whiteSpace=wrap;html=1;" vertex="1" parent="1">
          <mxGeometry x="790" y="-220" width="80" height="80" as="geometry" />
        </mxCell>
        <mxCell id="h92drkJxd7inWmm_5_wo-27" style="edgeStyle=orthogonalEdgeStyle;rounded=0;orthogonalLoop=1;jettySize=auto;html=1;entryX=0;entryY=1;entryDx=0;entryDy=0;endArrow=none;endFill=0;" edge="1" parent="1" source="h92drkJxd7inWmm_5_wo-26" target="h92drkJxd7inWmm_5_wo-23">
          <mxGeometry relative="1" as="geometry" />
        </mxCell>
        <mxCell id="h92drkJxd7inWmm_5_wo-26" value="&lt;i&gt;fecha_pago&lt;/i&gt;" style="ellipse;whiteSpace=wrap;html=1;" vertex="1" parent="1">
          <mxGeometry x="720" y="-100" width="90" height="30" as="geometry" />
        </mxCell>
        <mxCell id="h92drkJxd7inWmm_5_wo-29" style="edgeStyle=orthogonalEdgeStyle;rounded=0;orthogonalLoop=1;jettySize=auto;html=1;entryX=1;entryY=1;entryDx=0;entryDy=0;endArrow=none;endFill=0;" edge="1" parent="1" source="h92drkJxd7inWmm_5_wo-28" target="h92drkJxd7inWmm_5_wo-23">
          <mxGeometry relative="1" as="geometry" />
        </mxCell>
        <mxCell id="h92drkJxd7inWmm_5_wo-28" value="&lt;u&gt;&lt;i&gt;id_membresía&lt;/i&gt;&lt;/u&gt;" style="ellipse;whiteSpace=wrap;html=1;" vertex="1" parent="1">
          <mxGeometry x="860" y="-100" width="90" height="30" as="geometry" />
        </mxCell>
        <mxCell id="h92drkJxd7inWmm_5_wo-30" value="&lt;font style=&quot;font-size: 18px&quot;&gt;Categoría de pase&lt;/font&gt;" style="rounded=1;whiteSpace=wrap;html=1;" vertex="1" parent="1">
          <mxGeometry x="-220" y="250" width="150" height="80" as="geometry" />
        </mxCell>
        <mxCell id="h92drkJxd7inWmm_5_wo-35" style="edgeStyle=orthogonalEdgeStyle;rounded=0;orthogonalLoop=1;jettySize=auto;html=1;entryX=0.25;entryY=0;entryDx=0;entryDy=0;endArrow=none;endFill=0;" edge="1" parent="1" source="h92drkJxd7inWmm_5_wo-31" target="h92drkJxd7inWmm_5_wo-30">
          <mxGeometry relative="1" as="geometry" />
        </mxCell>
        <mxCell id="h92drkJxd7inWmm_5_wo-31" value="&lt;i&gt;&lt;u&gt;id_cat_pase&lt;/u&gt;&lt;/i&gt;" style="ellipse;whiteSpace=wrap;html=1;" vertex="1" parent="1">
          <mxGeometry x="-290" y="180" width="90" height="30" as="geometry" />
        </mxCell>
        <mxCell id="h92drkJxd7inWmm_5_wo-36" style="edgeStyle=orthogonalEdgeStyle;rounded=0;orthogonalLoop=1;jettySize=auto;html=1;entryX=0.75;entryY=0;entryDx=0;entryDy=0;endArrow=none;endFill=0;" edge="1" parent="1" source="h92drkJxd7inWmm_5_wo-33" target="h92drkJxd7inWmm_5_wo-30">
          <mxGeometry relative="1" as="geometry" />
        </mxCell>
        <mxCell id="h92drkJxd7inWmm_5_wo-33" value="&lt;i&gt;nombre_cat_pase&lt;/i&gt;" style="ellipse;whiteSpace=wrap;html=1;" vertex="1" parent="1">
          <mxGeometry x="-90" y="180" width="110" height="30" as="geometry" />
        </mxCell>
        <mxCell id="h92drkJxd7inWmm_5_wo-37" style="edgeStyle=orthogonalEdgeStyle;rounded=0;orthogonalLoop=1;jettySize=auto;html=1;endArrow=none;endFill=0;" edge="1" parent="1" source="h92drkJxd7inWmm_5_wo-34" target="h92drkJxd7inWmm_5_wo-30">
          <mxGeometry relative="1" as="geometry" />
        </mxCell>
        <mxCell id="h92drkJxd7inWmm_5_wo-34" value="&lt;i&gt;precio&lt;/i&gt;" style="ellipse;whiteSpace=wrap;html=1;" vertex="1" parent="1">
          <mxGeometry x="-190" y="370" width="110" height="30" as="geometry" />
        </mxCell>
        <mxCell id="h92drkJxd7inWmm_5_wo-71" style="edgeStyle=orthogonalEdgeStyle;rounded=0;orthogonalLoop=1;jettySize=auto;html=1;entryX=0;entryY=0.5;entryDx=0;entryDy=0;endArrow=none;endFill=0;" edge="1" parent="1" source="h92drkJxd7inWmm_5_wo-75" target="h92drkJxd7inWmm_5_wo-70">
          <mxGeometry relative="1" as="geometry" />
        </mxCell>
        <mxCell id="h92drkJxd7inWmm_5_wo-38" value="&lt;font style=&quot;font-size: 18px&quot;&gt;Pase de un día&lt;/font&gt;" style="rounded=1;whiteSpace=wrap;html=1;" vertex="1" parent="1">
          <mxGeometry x="-220" y="-220" width="150" height="80" as="geometry" />
        </mxCell>
        <mxCell id="h92drkJxd7inWmm_5_wo-46" style="edgeStyle=orthogonalEdgeStyle;rounded=0;orthogonalLoop=1;jettySize=auto;html=1;endArrow=none;endFill=0;" edge="1" parent="1" source="h92drkJxd7inWmm_5_wo-43">
          <mxGeometry relative="1" as="geometry">
            <mxPoint x="-180" y="-220" as="targetPoint" />
          </mxGeometry>
        </mxCell>
        <mxCell id="h92drkJxd7inWmm_5_wo-43" value="&lt;i&gt;&lt;u&gt;id_pase&lt;/u&gt;&lt;/i&gt;" style="ellipse;whiteSpace=wrap;html=1;" vertex="1" parent="1">
          <mxGeometry x="-260" y="-300" width="90" height="30" as="geometry" />
        </mxCell>
        <mxCell id="h92drkJxd7inWmm_5_wo-45" style="edgeStyle=orthogonalEdgeStyle;rounded=0;orthogonalLoop=1;jettySize=auto;html=1;entryX=0.75;entryY=0;entryDx=0;entryDy=0;endArrow=none;endFill=0;" edge="1" parent="1" source="h92drkJxd7inWmm_5_wo-44" target="h92drkJxd7inWmm_5_wo-38">
          <mxGeometry relative="1" as="geometry" />
        </mxCell>
        <mxCell id="h92drkJxd7inWmm_5_wo-44" value="&lt;i&gt;fecha&lt;/i&gt;" style="ellipse;whiteSpace=wrap;html=1;" vertex="1" parent="1">
          <mxGeometry x="-100" y="-300" width="90" height="30" as="geometry" />
        </mxCell>
        <mxCell id="h92drkJxd7inWmm_5_wo-98" style="edgeStyle=orthogonalEdgeStyle;rounded=0;orthogonalLoop=1;jettySize=auto;html=1;endArrow=none;endFill=0;" edge="1" parent="1" source="h92drkJxd7inWmm_5_wo-99" target="h92drkJxd7inWmm_5_wo-96">
          <mxGeometry relative="1" as="geometry" />
        </mxCell>
        <mxCell id="h92drkJxd7inWmm_5_wo-53" value="&lt;font style=&quot;font-size: 18px&quot;&gt;Mercancía&lt;/font&gt;" style="rounded=1;whiteSpace=wrap;html=1;" vertex="1" parent="1">
          <mxGeometry x="1100" y="370" width="150" height="80" as="geometry" />
        </mxCell>
        <mxCell id="h92drkJxd7inWmm_5_wo-54" style="edgeStyle=orthogonalEdgeStyle;rounded=0;orthogonalLoop=1;jettySize=auto;html=1;entryX=0.25;entryY=0;entryDx=0;entryDy=0;endArrow=none;endFill=0;" edge="1" parent="1" source="h92drkJxd7inWmm_5_wo-55" target="h92drkJxd7inWmm_5_wo-53">
          <mxGeometry relative="1" as="geometry" />
        </mxCell>
        <mxCell id="h92drkJxd7inWmm_5_wo-55" value="&lt;i&gt;&lt;u&gt;id_mer&lt;/u&gt;&lt;/i&gt;" style="ellipse;whiteSpace=wrap;html=1;" vertex="1" parent="1">
          <mxGeometry x="1030" y="300" width="90" height="30" as="geometry" />
        </mxCell>
        <mxCell id="h92drkJxd7inWmm_5_wo-56" style="edgeStyle=orthogonalEdgeStyle;rounded=0;orthogonalLoop=1;jettySize=auto;html=1;entryX=0.75;entryY=0;entryDx=0;entryDy=0;endArrow=none;endFill=0;" edge="1" parent="1" source="h92drkJxd7inWmm_5_wo-57" target="h92drkJxd7inWmm_5_wo-53">
          <mxGeometry relative="1" as="geometry" />
        </mxCell>
        <mxCell id="h92drkJxd7inWmm_5_wo-57" value="&lt;i&gt;&lt;u&gt;nombre&lt;/u&gt;&lt;/i&gt;" style="ellipse;whiteSpace=wrap;html=1;" vertex="1" parent="1">
          <mxGeometry x="1230" y="300" width="110" height="30" as="geometry" />
        </mxCell>
        <mxCell id="h92drkJxd7inWmm_5_wo-58" style="edgeStyle=orthogonalEdgeStyle;rounded=0;orthogonalLoop=1;jettySize=auto;html=1;endArrow=none;endFill=0;" edge="1" parent="1" source="h92drkJxd7inWmm_5_wo-59" target="h92drkJxd7inWmm_5_wo-53">
          <mxGeometry relative="1" as="geometry" />
        </mxCell>
        <mxCell id="h92drkJxd7inWmm_5_wo-59" value="&lt;i&gt;precio&lt;/i&gt;" style="ellipse;whiteSpace=wrap;html=1;" vertex="1" parent="1">
          <mxGeometry x="1130" y="490" width="110" height="30" as="geometry" />
        </mxCell>
        <mxCell id="h92drkJxd7inWmm_5_wo-97" style="edgeStyle=orthogonalEdgeStyle;rounded=0;orthogonalLoop=1;jettySize=auto;html=1;endArrow=none;endFill=0;" edge="1" parent="1" source="h92drkJxd7inWmm_5_wo-101" target="h92drkJxd7inWmm_5_wo-96">
          <mxGeometry relative="1" as="geometry" />
        </mxCell>
        <mxCell id="h92drkJxd7inWmm_5_wo-60" value="&lt;font style=&quot;font-size: 18px&quot;&gt;Transacción&lt;/font&gt;" style="rounded=1;whiteSpace=wrap;html=1;" vertex="1" parent="1">
          <mxGeometry x="420" y="370" width="150" height="80" as="geometry" />
        </mxCell>
        <mxCell id="h92drkJxd7inWmm_5_wo-61" style="edgeStyle=orthogonalEdgeStyle;rounded=0;orthogonalLoop=1;jettySize=auto;html=1;endArrow=none;endFill=0;" edge="1" parent="1" source="h92drkJxd7inWmm_5_wo-62">
          <mxGeometry relative="1" as="geometry">
            <mxPoint x="460" y="370" as="targetPoint" />
          </mxGeometry>
        </mxCell>
        <mxCell id="h92drkJxd7inWmm_5_wo-62" value="&lt;i&gt;&lt;u&gt;id_trans&lt;/u&gt;&lt;/i&gt;" style="ellipse;whiteSpace=wrap;html=1;" vertex="1" parent="1">
          <mxGeometry x="380" y="290" width="90" height="30" as="geometry" />
        </mxCell>
        <mxCell id="h92drkJxd7inWmm_5_wo-63" style="edgeStyle=orthogonalEdgeStyle;rounded=0;orthogonalLoop=1;jettySize=auto;html=1;entryX=0.75;entryY=0;entryDx=0;entryDy=0;endArrow=none;endFill=0;" edge="1" parent="1" source="h92drkJxd7inWmm_5_wo-64" target="h92drkJxd7inWmm_5_wo-60">
          <mxGeometry relative="1" as="geometry" />
        </mxCell>
        <mxCell id="h92drkJxd7inWmm_5_wo-64" value="&lt;i&gt;&lt;u&gt;fecha&lt;/u&gt;&lt;/i&gt;" style="ellipse;whiteSpace=wrap;html=1;" vertex="1" parent="1">
          <mxGeometry x="540" y="290" width="90" height="30" as="geometry" />
        </mxCell>
        <mxCell id="h92drkJxd7inWmm_5_wo-65" value="1:1" style="text;html=1;strokeColor=none;fillColor=none;align=center;verticalAlign=middle;whiteSpace=wrap;rounded=0;" vertex="1" parent="1">
          <mxGeometry x="580" y="-190" width="40" height="20" as="geometry" />
        </mxCell>
        <mxCell id="h92drkJxd7inWmm_5_wo-66" style="edgeStyle=orthogonalEdgeStyle;rounded=0;orthogonalLoop=1;jettySize=auto;html=1;endArrow=none;endFill=0;" edge="1" parent="1" source="h92drkJxd7inWmm_5_wo-23" target="h92drkJxd7inWmm_5_wo-65">
          <mxGeometry relative="1" as="geometry">
            <mxPoint x="790" y="-180" as="sourcePoint" />
            <mxPoint x="570" y="-180" as="targetPoint" />
          </mxGeometry>
        </mxCell>
        <mxCell id="h92drkJxd7inWmm_5_wo-67" value="1:N" style="text;html=1;strokeColor=none;fillColor=none;align=center;verticalAlign=middle;whiteSpace=wrap;rounded=0;" vertex="1" parent="1">
          <mxGeometry x="1030" y="-190" width="40" height="20" as="geometry" />
        </mxCell>
        <mxCell id="h92drkJxd7inWmm_5_wo-68" style="edgeStyle=orthogonalEdgeStyle;rounded=0;orthogonalLoop=1;jettySize=auto;html=1;entryX=0;entryY=0.5;entryDx=0;entryDy=0;endArrow=none;endFill=0;" edge="1" parent="1" source="h92drkJxd7inWmm_5_wo-23" target="h92drkJxd7inWmm_5_wo-67">
          <mxGeometry relative="1" as="geometry">
            <mxPoint x="870" y="-180" as="sourcePoint" />
            <mxPoint x="1090" y="-180" as="targetPoint" />
          </mxGeometry>
        </mxCell>
        <mxCell id="h92drkJxd7inWmm_5_wo-69" value="1:N" style="text;html=1;strokeColor=none;fillColor=none;align=center;verticalAlign=middle;whiteSpace=wrap;rounded=0;" vertex="1" parent="1">
          <mxGeometry x="810" y="-240" width="40" height="20" as="geometry" />
        </mxCell>
        <mxCell id="h92drkJxd7inWmm_5_wo-117" style="edgeStyle=orthogonalEdgeStyle;rounded=0;orthogonalLoop=1;jettySize=auto;html=1;endArrow=none;endFill=0;exitX=1;exitY=0;exitDx=0;exitDy=0;" edge="1" parent="1" source="h92drkJxd7inWmm_5_wo-70" target="h92drkJxd7inWmm_5_wo-112">
          <mxGeometry relative="1" as="geometry" />
        </mxCell>
        <mxCell id="h92drkJxd7inWmm_5_wo-70" value="&lt;font style=&quot;font-size: 14px&quot;&gt;comprar&lt;/font&gt;" style="rhombus;whiteSpace=wrap;html=1;" vertex="1" parent="1">
          <mxGeometry x="100" y="-220" width="80" height="80" as="geometry" />
        </mxCell>
        <mxCell id="h92drkJxd7inWmm_5_wo-73" value="1:N" style="text;html=1;strokeColor=none;fillColor=none;align=center;verticalAlign=middle;whiteSpace=wrap;rounded=0;" vertex="1" parent="1">
          <mxGeometry x="340" y="-190" width="40" height="20" as="geometry" />
        </mxCell>
        <mxCell id="h92drkJxd7inWmm_5_wo-74" style="edgeStyle=orthogonalEdgeStyle;rounded=0;orthogonalLoop=1;jettySize=auto;html=1;entryX=1;entryY=0.5;entryDx=0;entryDy=0;endArrow=none;endFill=0;" edge="1" parent="1" source="h92drkJxd7inWmm_5_wo-1" target="h92drkJxd7inWmm_5_wo-73">
          <mxGeometry relative="1" as="geometry">
            <mxPoint x="420" y="-180" as="sourcePoint" />
            <mxPoint x="180" y="-180" as="targetPoint" />
          </mxGeometry>
        </mxCell>
        <mxCell id="h92drkJxd7inWmm_5_wo-75" value="1:1" style="text;html=1;strokeColor=none;fillColor=none;align=center;verticalAlign=middle;whiteSpace=wrap;rounded=0;" vertex="1" parent="1">
          <mxGeometry x="-50" y="-190" width="40" height="20" as="geometry" />
        </mxCell>
        <mxCell id="h92drkJxd7inWmm_5_wo-77" style="edgeStyle=orthogonalEdgeStyle;rounded=0;orthogonalLoop=1;jettySize=auto;html=1;entryX=0;entryY=0.5;entryDx=0;entryDy=0;endArrow=none;endFill=0;" edge="1" parent="1" source="h92drkJxd7inWmm_5_wo-38" target="h92drkJxd7inWmm_5_wo-75">
          <mxGeometry relative="1" as="geometry">
            <mxPoint x="-70" y="-180" as="sourcePoint" />
            <mxPoint x="100" y="-180" as="targetPoint" />
          </mxGeometry>
        </mxCell>
        <mxCell id="h92drkJxd7inWmm_5_wo-78" value="1:N" style="text;html=1;strokeColor=none;fillColor=none;align=center;verticalAlign=middle;whiteSpace=wrap;rounded=0;" vertex="1" parent="1">
          <mxGeometry x="120" y="-240" width="40" height="20" as="geometry" />
        </mxCell>
        <mxCell id="h92drkJxd7inWmm_5_wo-80" style="edgeStyle=orthogonalEdgeStyle;rounded=0;orthogonalLoop=1;jettySize=auto;html=1;endArrow=none;endFill=0;" edge="1" parent="1" source="h92drkJxd7inWmm_5_wo-82" target="h92drkJxd7inWmm_5_wo-38">
          <mxGeometry relative="1" as="geometry">
            <Array as="points">
              <mxPoint x="-145" y="-140" />
              <mxPoint x="-145" y="-140" />
            </Array>
          </mxGeometry>
        </mxCell>
        <mxCell id="h92drkJxd7inWmm_5_wo-81" style="edgeStyle=orthogonalEdgeStyle;rounded=0;orthogonalLoop=1;jettySize=auto;html=1;endArrow=none;endFill=0;" edge="1" parent="1" source="h92drkJxd7inWmm_5_wo-84" target="h92drkJxd7inWmm_5_wo-30">
          <mxGeometry relative="1" as="geometry" />
        </mxCell>
        <mxCell id="h92drkJxd7inWmm_5_wo-79" value="&lt;font style=&quot;font-size: 14px&quot;&gt;pertenece&lt;/font&gt;" style="rhombus;whiteSpace=wrap;html=1;" vertex="1" parent="1">
          <mxGeometry x="-185" y="-20" width="80" height="80" as="geometry" />
        </mxCell>
        <mxCell id="h92drkJxd7inWmm_5_wo-82" value="1:1" style="text;html=1;strokeColor=none;fillColor=none;align=center;verticalAlign=middle;whiteSpace=wrap;rounded=0;" vertex="1" parent="1">
          <mxGeometry x="-165" y="-130" width="40" height="20" as="geometry" />
        </mxCell>
        <mxCell id="h92drkJxd7inWmm_5_wo-83" style="edgeStyle=orthogonalEdgeStyle;rounded=0;orthogonalLoop=1;jettySize=auto;html=1;endArrow=none;endFill=0;" edge="1" parent="1" source="h92drkJxd7inWmm_5_wo-79" target="h92drkJxd7inWmm_5_wo-82">
          <mxGeometry relative="1" as="geometry">
            <mxPoint x="-145" y="-20" as="sourcePoint" />
            <mxPoint x="-145" y="-140" as="targetPoint" />
          </mxGeometry>
        </mxCell>
        <mxCell id="h92drkJxd7inWmm_5_wo-84" value="1:M" style="text;html=1;strokeColor=none;fillColor=none;align=center;verticalAlign=middle;whiteSpace=wrap;rounded=0;" vertex="1" parent="1">
          <mxGeometry x="-165" y="200" width="40" height="20" as="geometry" />
        </mxCell>
        <mxCell id="h92drkJxd7inWmm_5_wo-85" style="edgeStyle=orthogonalEdgeStyle;rounded=0;orthogonalLoop=1;jettySize=auto;html=1;endArrow=none;endFill=0;" edge="1" parent="1" source="h92drkJxd7inWmm_5_wo-79" target="h92drkJxd7inWmm_5_wo-84">
          <mxGeometry relative="1" as="geometry">
            <mxPoint x="-145" y="60" as="sourcePoint" />
            <mxPoint x="-145" y="250" as="targetPoint" />
          </mxGeometry>
        </mxCell>
        <mxCell id="h92drkJxd7inWmm_5_wo-86" value="1:M" style="text;html=1;strokeColor=none;fillColor=none;align=center;verticalAlign=middle;whiteSpace=wrap;rounded=0;" vertex="1" parent="1">
          <mxGeometry x="-110" y="10" width="40" height="20" as="geometry" />
        </mxCell>
        <mxCell id="h92drkJxd7inWmm_5_wo-88" style="edgeStyle=orthogonalEdgeStyle;rounded=0;orthogonalLoop=1;jettySize=auto;html=1;endArrow=none;endFill=0;" edge="1" parent="1" source="h92drkJxd7inWmm_5_wo-93" target="h92drkJxd7inWmm_5_wo-1">
          <mxGeometry relative="1" as="geometry" />
        </mxCell>
        <mxCell id="h92drkJxd7inWmm_5_wo-89" style="edgeStyle=orthogonalEdgeStyle;rounded=0;orthogonalLoop=1;jettySize=auto;html=1;endArrow=none;endFill=0;" edge="1" parent="1" source="h92drkJxd7inWmm_5_wo-90" target="h92drkJxd7inWmm_5_wo-60">
          <mxGeometry relative="1" as="geometry" />
        </mxCell>
        <mxCell id="h92drkJxd7inWmm_5_wo-87" value="&lt;font style=&quot;font-size: 14px&quot;&gt;involuvra&lt;/font&gt;" style="rhombus;whiteSpace=wrap;html=1;" vertex="1" parent="1">
          <mxGeometry x="455" y="30" width="80" height="80" as="geometry" />
        </mxCell>
        <mxCell id="h92drkJxd7inWmm_5_wo-90" value="1:1" style="text;html=1;strokeColor=none;fillColor=none;align=center;verticalAlign=middle;whiteSpace=wrap;rounded=0;" vertex="1" parent="1">
          <mxGeometry x="475" y="320" width="40" height="20" as="geometry" />
        </mxCell>
        <mxCell id="h92drkJxd7inWmm_5_wo-92" style="edgeStyle=orthogonalEdgeStyle;rounded=0;orthogonalLoop=1;jettySize=auto;html=1;endArrow=none;endFill=0;" edge="1" parent="1" source="h92drkJxd7inWmm_5_wo-87" target="h92drkJxd7inWmm_5_wo-90">
          <mxGeometry relative="1" as="geometry">
            <mxPoint x="495" y="110" as="sourcePoint" />
            <mxPoint x="495" y="370" as="targetPoint" />
          </mxGeometry>
        </mxCell>
        <mxCell id="h92drkJxd7inWmm_5_wo-93" value="1:N" style="text;html=1;strokeColor=none;fillColor=none;align=center;verticalAlign=middle;whiteSpace=wrap;rounded=0;" vertex="1" parent="1">
          <mxGeometry x="475" y="-100" width="40" height="20" as="geometry" />
        </mxCell>
        <mxCell id="h92drkJxd7inWmm_5_wo-94" style="edgeStyle=orthogonalEdgeStyle;rounded=0;orthogonalLoop=1;jettySize=auto;html=1;endArrow=none;endFill=0;" edge="1" parent="1" source="h92drkJxd7inWmm_5_wo-87" target="h92drkJxd7inWmm_5_wo-93">
          <mxGeometry relative="1" as="geometry">
            <mxPoint x="495" y="30" as="sourcePoint" />
            <mxPoint x="495" y="-140" as="targetPoint" />
          </mxGeometry>
        </mxCell>
        <mxCell id="h92drkJxd7inWmm_5_wo-95" value="1:N" style="text;html=1;strokeColor=none;fillColor=none;align=center;verticalAlign=middle;whiteSpace=wrap;rounded=0;" vertex="1" parent="1">
          <mxGeometry x="535" y="60" width="40" height="20" as="geometry" />
        </mxCell>
        <mxCell id="h92drkJxd7inWmm_5_wo-96" value="&lt;font style=&quot;font-size: 14px&quot;&gt;se vende/&lt;br&gt;involucra&lt;br&gt;&lt;/font&gt;" style="rhombus;whiteSpace=wrap;html=1;" vertex="1" parent="1">
          <mxGeometry x="790" y="365" width="100" height="90" as="geometry" />
        </mxCell>
        <mxCell id="h92drkJxd7inWmm_5_wo-99" value="1:M&lt;span style=&quot;color: rgba(0 , 0 , 0 , 0) ; font-family: monospace ; font-size: 0px&quot;&gt;%3CmxGraphModel%3E%3Croot%3E%3CmxCell%20id%3D%220%22%2F%3E%3CmxCell%20id%3D%221%22%20parent%3D%220%22%2F%3E%3CmxCell%20id%3D%222%22%20value%3D%221%3AN%22%20style%3D%22text%3Bhtml%3D1%3BstrokeColor%3Dnone%3BfillColor%3Dnone%3Balign%3Dcenter%3BverticalAlign%3Dmiddle%3BwhiteSpace%3Dwrap%3Brounded%3D0%3B%22%20vertex%3D%221%22%20parent%3D%221%22%3E%3CmxGeometry%20x%3D%221030%22%20y%3D%22400%22%20width%3D%2240%22%20height%3D%2220%22%20as%3D%22geometry%22%2F%3E%3C%2FmxCell%3E%3C%2Froot%3E%3C%2FmxGraphModel%3E&lt;/span&gt;" style="text;html=1;strokeColor=none;fillColor=none;align=center;verticalAlign=middle;whiteSpace=wrap;rounded=0;" vertex="1" parent="1">
          <mxGeometry x="1030" y="400" width="40" height="20" as="geometry" />
        </mxCell>
        <mxCell id="h92drkJxd7inWmm_5_wo-100" style="edgeStyle=orthogonalEdgeStyle;rounded=0;orthogonalLoop=1;jettySize=auto;html=1;endArrow=none;endFill=0;" edge="1" parent="1" source="h92drkJxd7inWmm_5_wo-53" target="h92drkJxd7inWmm_5_wo-99">
          <mxGeometry relative="1" as="geometry">
            <mxPoint x="1100" y="410" as="sourcePoint" />
            <mxPoint x="880" y="410" as="targetPoint" />
          </mxGeometry>
        </mxCell>
        <mxCell id="h92drkJxd7inWmm_5_wo-101" value="1:N" style="text;html=1;strokeColor=none;fillColor=none;align=center;verticalAlign=middle;whiteSpace=wrap;rounded=0;" vertex="1" parent="1">
          <mxGeometry x="590" y="400" width="40" height="20" as="geometry" />
        </mxCell>
        <mxCell id="h92drkJxd7inWmm_5_wo-102" style="edgeStyle=orthogonalEdgeStyle;rounded=0;orthogonalLoop=1;jettySize=auto;html=1;endArrow=none;endFill=0;" edge="1" parent="1" source="h92drkJxd7inWmm_5_wo-60" target="h92drkJxd7inWmm_5_wo-101">
          <mxGeometry relative="1" as="geometry">
            <mxPoint x="570" y="410" as="sourcePoint" />
            <mxPoint x="800" y="410" as="targetPoint" />
          </mxGeometry>
        </mxCell>
        <mxCell id="h92drkJxd7inWmm_5_wo-103" value="N:M" style="text;html=1;strokeColor=none;fillColor=none;align=center;verticalAlign=middle;whiteSpace=wrap;rounded=0;" vertex="1" parent="1">
          <mxGeometry x="820" y="340" width="40" height="20" as="geometry" />
        </mxCell>
        <mxCell id="h92drkJxd7inWmm_5_wo-109" style="edgeStyle=orthogonalEdgeStyle;rounded=0;orthogonalLoop=1;jettySize=auto;html=1;endArrow=none;endFill=0;" edge="1" parent="1" source="h92drkJxd7inWmm_5_wo-104" target="h92drkJxd7inWmm_5_wo-96">
          <mxGeometry relative="1" as="geometry" />
        </mxCell>
        <mxCell id="h92drkJxd7inWmm_5_wo-104" value="&lt;i&gt;&lt;u&gt;cantidad&lt;br&gt;&lt;/u&gt;&lt;/i&gt;" style="ellipse;whiteSpace=wrap;html=1;" vertex="1" parent="1">
          <mxGeometry x="710" y="510" width="90" height="30" as="geometry" />
        </mxCell>
        <mxCell id="h92drkJxd7inWmm_5_wo-111" style="edgeStyle=orthogonalEdgeStyle;rounded=0;orthogonalLoop=1;jettySize=auto;html=1;entryX=0;entryY=0;entryDx=0;entryDy=0;endArrow=none;endFill=0;" edge="1" parent="1" source="h92drkJxd7inWmm_5_wo-106" target="h92drkJxd7inWmm_5_wo-96">
          <mxGeometry relative="1" as="geometry" />
        </mxCell>
        <mxCell id="h92drkJxd7inWmm_5_wo-106" value="&lt;i&gt;&lt;u&gt;id_trans&lt;/u&gt;&lt;/i&gt;" style="ellipse;whiteSpace=wrap;html=1;" vertex="1" parent="1">
          <mxGeometry x="720" y="290" width="90" height="30" as="geometry" />
        </mxCell>
        <mxCell id="h92drkJxd7inWmm_5_wo-110" style="edgeStyle=orthogonalEdgeStyle;rounded=0;orthogonalLoop=1;jettySize=auto;html=1;entryX=1;entryY=0;entryDx=0;entryDy=0;endArrow=none;endFill=0;" edge="1" parent="1" source="h92drkJxd7inWmm_5_wo-107" target="h92drkJxd7inWmm_5_wo-96">
          <mxGeometry relative="1" as="geometry" />
        </mxCell>
        <mxCell id="h92drkJxd7inWmm_5_wo-107" value="&lt;i&gt;&lt;u&gt;id_mer&lt;/u&gt;&lt;/i&gt;" style="ellipse;whiteSpace=wrap;html=1;" vertex="1" parent="1">
          <mxGeometry x="880" y="290" width="90" height="30" as="geometry" />
        </mxCell>
        <mxCell id="h92drkJxd7inWmm_5_wo-112" value="&lt;i&gt;&lt;u&gt;id_pase&lt;/u&gt;&lt;/i&gt;" style="ellipse;whiteSpace=wrap;html=1;" vertex="1" parent="1">
          <mxGeometry x="180" y="-320" width="90" height="30" as="geometry" />
        </mxCell>
        <mxCell id="h92drkJxd7inWmm_5_wo-116" style="edgeStyle=orthogonalEdgeStyle;rounded=0;orthogonalLoop=1;jettySize=auto;html=1;endArrow=none;endFill=0;" edge="1" parent="1" source="h92drkJxd7inWmm_5_wo-114" target="h92drkJxd7inWmm_5_wo-70">
          <mxGeometry relative="1" as="geometry" />
        </mxCell>
        <mxCell id="h92drkJxd7inWmm_5_wo-114" value="&lt;u&gt;&lt;i&gt;id_miembro&lt;/i&gt;&lt;/u&gt;" style="ellipse;whiteSpace=wrap;html=1;" vertex="1" parent="1">
          <mxGeometry x="90" y="-80" width="90" height="30" as="geometry" />
        </mxCell>
        <mxCell id="h92drkJxd7inWmm_5_wo-123" style="edgeStyle=orthogonalEdgeStyle;rounded=0;orthogonalLoop=1;jettySize=auto;html=1;entryX=0;entryY=0;entryDx=0;entryDy=0;endArrow=none;endFill=0;" edge="1" parent="1" source="h92drkJxd7inWmm_5_wo-118" target="h92drkJxd7inWmm_5_wo-79">
          <mxGeometry relative="1" as="geometry" />
        </mxCell>
        <mxCell id="h92drkJxd7inWmm_5_wo-118" value="&lt;i&gt;&lt;u&gt;id_pase&lt;/u&gt;&lt;/i&gt;" style="ellipse;whiteSpace=wrap;html=1;" vertex="1" parent="1">
          <mxGeometry x="-320" y="-70" width="90" height="30" as="geometry" />
        </mxCell>
        <mxCell id="h92drkJxd7inWmm_5_wo-122" style="edgeStyle=orthogonalEdgeStyle;rounded=0;orthogonalLoop=1;jettySize=auto;html=1;entryX=0;entryY=1;entryDx=0;entryDy=0;endArrow=none;endFill=0;" edge="1" parent="1" source="h92drkJxd7inWmm_5_wo-119" target="h92drkJxd7inWmm_5_wo-79">
          <mxGeometry relative="1" as="geometry" />
        </mxCell>
        <mxCell id="h92drkJxd7inWmm_5_wo-119" value="&lt;i&gt;&lt;u&gt;id_cat_pase&lt;/u&gt;&lt;/i&gt;" style="ellipse;whiteSpace=wrap;html=1;" vertex="1" parent="1">
          <mxGeometry x="-340" y="60" width="90" height="30" as="geometry" />
        </mxCell>
        <mxCell id="h92drkJxd7inWmm_5_wo-128" style="edgeStyle=orthogonalEdgeStyle;rounded=0;orthogonalLoop=1;jettySize=auto;html=1;entryX=0;entryY=0.5;entryDx=0;entryDy=0;endArrow=none;endFill=0;" edge="1" parent="1" source="h92drkJxd7inWmm_5_wo-124" target="h92drkJxd7inWmm_5_wo-87">
          <mxGeometry relative="1" as="geometry" />
        </mxCell>
        <mxCell id="h92drkJxd7inWmm_5_wo-124" value="&lt;u&gt;&lt;i&gt;id_miembro&lt;/i&gt;&lt;/u&gt;" style="ellipse;whiteSpace=wrap;html=1;" vertex="1" parent="1">
          <mxGeometry x="320" y="-30" width="90" height="30" as="geometry" />
        </mxCell>
        <mxCell id="h92drkJxd7inWmm_5_wo-131" style="edgeStyle=orthogonalEdgeStyle;rounded=0;orthogonalLoop=1;jettySize=auto;html=1;entryX=0;entryY=1;entryDx=0;entryDy=0;endArrow=none;endFill=0;" edge="1" parent="1" source="h92drkJxd7inWmm_5_wo-126" target="h92drkJxd7inWmm_5_wo-87">
          <mxGeometry relative="1" as="geometry" />
        </mxCell>
        <mxCell id="h92drkJxd7inWmm_5_wo-126" value="&lt;i&gt;&lt;u&gt;id_trans&lt;/u&gt;&lt;/i&gt;" style="ellipse;whiteSpace=wrap;html=1;" vertex="1" parent="1">
          <mxGeometry x="350" y="130" width="90" height="30" as="geometry" />
        </mxCell>
        <mxCell id="h92drkJxd7inWmm_5_wo-130" style="edgeStyle=orthogonalEdgeStyle;rounded=0;orthogonalLoop=1;jettySize=auto;html=1;entryX=1;entryY=1;entryDx=0;entryDy=0;endArrow=none;endFill=0;" edge="1" parent="1" source="h92drkJxd7inWmm_5_wo-127" target="h92drkJxd7inWmm_5_wo-87">
          <mxGeometry relative="1" as="geometry" />
        </mxCell>
        <mxCell id="h92drkJxd7inWmm_5_wo-127" value="&lt;i&gt;&lt;u&gt;fecha&lt;/u&gt;&lt;/i&gt;" style="ellipse;whiteSpace=wrap;html=1;" vertex="1" parent="1">
          <mxGeometry x="565" y="130" width="90" height="30" as="geometry" />
        </mxCell>
      </root>
    </mxGraphModel>
  </diagram>
</mxfile>
